<svg width="36" height="52" viewBox="0 0 36 52" fill="none" xmlns="http://www.w3.org/2000/svg">
<mask id="path-1-outside-1_33_7" maskUnits="userSpaceOnUse" x="-0.958115" y="-0.339996" width="37" height="53" fill="black">
<rect fill="white" x="-0.958115" y="-0.339996" width="37" height="53"/>
<path d="M4.63789 40.916C8.98989 37.2893 12.4579 34.2747 15.0419 31.872C17.6259 29.424 19.7792 26.8853 21.5019 24.256C23.2246 21.6267 24.0859 19.0427 24.0859 16.504C24.0859 14.192 23.5419 12.3787 22.4539 11.064C21.3659 9.74933 19.6886 9.092 17.4219 9.092C15.1552 9.092 13.4099 9.86267 12.1859 11.404C10.9619 12.9 10.3272 14.9627 10.2819 17.592H1.03389C1.21522 12.152 2.82455 8.02667 5.86189 5.216C8.94455 2.40533 12.8432 0.999999 17.5579 0.999999C22.7259 0.999999 26.6926 2.38267 29.4579 5.148C32.2232 7.868 33.6059 11.472 33.6059 15.96C33.6059 19.496 32.6539 22.8733 30.7499 26.092C28.8459 29.3107 26.6699 32.1213 24.2219 34.524C21.7739 36.8813 18.5779 39.7373 14.6339 43.092H34.6939V50.98H1.10189V43.908L4.63789 40.916Z"/>
</mask>
<path d="M4.63789 40.916L3.99768 40.1478L3.99194 40.1526L4.63789 40.916ZM15.0419 31.872L15.7229 32.6044L15.7296 32.598L15.0419 31.872ZM21.5019 24.256L22.3383 24.804V24.804L21.5019 24.256ZM22.4539 11.064L21.6835 11.7016V11.7016L22.4539 11.064ZM12.1859 11.404L12.9598 12.0372L12.9645 12.0316L12.969 12.0259L12.1859 11.404ZM10.2819 17.592V18.592H11.2648L11.2817 17.6092L10.2819 17.592ZM1.03389 17.592L0.0344408 17.5587L-3.09944e-06 18.592H1.03389V17.592ZM5.86189 5.216L5.18811 4.47703L5.1827 4.48204L5.86189 5.216ZM29.4579 5.148L28.7508 5.85513L28.7566 5.86093L29.4579 5.148ZM30.7499 26.092L31.6106 26.6011V26.6011L30.7499 26.092ZM24.2219 34.524L24.9156 35.2444L24.9224 35.2377L24.2219 34.524ZM14.6339 43.092L13.986 42.3303L11.9148 44.092H14.6339V43.092ZM34.6939 43.092H35.6939V42.092H34.6939V43.092ZM34.6939 50.98V51.98H35.6939V50.98H34.6939ZM1.10189 50.98H0.101886V51.98H1.10189V50.98ZM1.10189 43.908L0.455943 43.1446L0.101886 43.4442V43.908H1.10189ZM5.27807 41.6842C9.63676 38.052 13.1201 35.0244 15.7228 32.6043L14.3609 31.1397C11.7957 33.5249 8.34301 36.5267 3.9977 40.1478L5.27807 41.6842ZM15.7296 32.598C18.3627 30.1035 20.568 27.5061 22.3383 24.804L20.6654 23.708C18.9904 26.2645 16.8891 28.7445 14.3541 31.146L15.7296 32.598ZM22.3383 24.804C24.1422 22.0507 25.0859 19.2792 25.0859 16.504H23.0859C23.0859 18.8061 22.3069 21.2026 20.6654 23.708L22.3383 24.804ZM25.0859 16.504C25.0859 14.0418 24.506 11.9751 23.2243 10.4264L21.6835 11.7016C22.5778 12.7822 23.0859 14.3422 23.0859 16.504H25.0859ZM23.2243 10.4264C21.8885 8.81237 19.8821 8.092 17.4219 8.092V10.092C19.495 10.092 20.8433 10.6863 21.6835 11.7016L23.2243 10.4264ZM17.4219 8.092C14.9023 8.092 12.8467 8.96386 11.4028 10.7821L12.969 12.0259C13.9731 10.7615 15.4081 10.092 17.4219 10.092V8.092ZM11.4119 10.7708C10.0018 12.4943 9.32986 14.801 9.28203 17.5748L11.2817 17.6092C11.3246 15.1244 11.922 13.3057 12.9598 12.0372L11.4119 10.7708ZM10.2819 16.592H1.03389V18.592H10.2819V16.592ZM2.03333 17.6253C2.20868 12.3647 3.75586 8.52732 6.54107 5.94996L5.1827 4.48204C1.89324 7.52601 0.221755 11.9393 0.0344408 17.5587L2.03333 17.6253ZM6.53564 5.95496C9.40986 3.33434 13.0576 2 17.5579 2V0C12.6288 0 8.47924 1.47632 5.18813 4.47705L6.53564 5.95496ZM17.5579 2C22.549 2 26.2274 3.33171 28.7508 5.85511L30.165 4.4409C27.1577 1.43363 22.9027 0 17.5579 0V2ZM28.7566 5.86093C31.3006 8.36315 32.6059 11.6944 32.6059 15.96H34.6059C34.6059 11.2496 33.1459 7.37286 30.1591 4.43508L28.7566 5.86093ZM32.6059 15.96C32.6059 19.3064 31.7075 22.5091 29.8892 25.5829L31.6106 26.6011C33.6003 23.2375 34.6059 19.6856 34.6059 15.96H32.6059ZM29.8892 25.5829C28.0255 28.7334 25.902 31.4738 23.5214 33.8103L24.9224 35.2377C27.4377 32.7689 29.6662 29.888 31.6106 26.6011L29.8892 25.5829ZM23.5282 33.8037C21.1006 36.1414 17.9215 38.9828 13.986 42.3303L15.2818 43.8537C19.2343 40.4918 22.4472 37.6212 24.9155 35.2443L23.5282 33.8037ZM14.6339 44.092H34.6939V42.092H14.6339V44.092ZM33.6939 43.092V50.98H35.6939V43.092H33.6939ZM34.6939 49.98H1.10189V51.98H34.6939V49.98ZM2.10189 50.98V43.908H0.101886V50.98H2.10189ZM1.74783 44.6714L5.28383 41.6794L3.99194 40.1526L0.455943 43.1446L1.74783 44.6714Z" fill="white" mask="url(#path-1-outside-1_33_7)"/>
</svg>
